Coordinates
nRows=10
nColumns=38

# SIMM Motion File Header:
name Coordinates
datacolumns 38
datarows 10
otherdata 1
range 0.84900000000000009000 0.85799999999999998000

Units are S.I. units (second, meters, Newtons, ...)
Angles are in degrees.

endheader
time	pelvis_tilt	pelvis_list	pelvis_rotation	pelvis_tx	pelvis_ty	pelvis_tz	hip_flexion_r	hip_adduction_r	hip_rotation_r	knee_angle_r	ankle_angle_r	subtalar_angle_r	mtp_angle_r	hip_flexion_l	hip_adduction_l	hip_rotation_l	knee_angle_l	ankle_angle_l	subtalar_angle_l	mtp_angle_l	lumbar_extension	lumbar_bending	lumbar_rotation	arm_flex_r	arm_add_r	arm_rot_r	elbow_flex_r	pro_sup_r	wrist_flex_r	wrist_dev_r	arm_flex_l	arm_add_l	arm_rot_l	elbow_flex_l	pro_sup_l	wrist_flex_l	wrist_dev_l
      0.84900000000000009000	     -1.01656754785042440000	      3.06829285728129570000	     -3.51016099776550710000	      0.78625831809312352000	      1.00055492293951430000	     -0.29814592045753635000	    -17.92823728709841900000	     -1.45501575583735820000	      4.13504215543370710000	    -51.42597930476870300000	    -22.58275029613816200000	     -0.00000000000003856680	     -0.00000000000000544592	     24.79637281374483800000	      5.75611259891957780000	      4.79572427507722040000	     -5.32708811145232720000	      4.14659802405762520000	      0.00000000000002222452	     -0.00000000000002938424	     -9.23012296590392010000	     -4.95881836813189910000	     11.73439779842393300000	    -13.85505405562943300000	    -29.28082196112669800000	    -11.07463652566219100000	    107.62472028452942000000	     73.93979867600019400000	     -0.00000000000000065640	      0.00000000000001635257	    -42.98382400706011500000	    -17.46776672302105700000	    -14.84412850657471400000	    100.84759297067247000000	     89.07908986862821600000	      0.00000000000004734001	      0.00000000000000559006
      0.85000000000000009000	     -0.93134790240153609000	      3.12025864316292580000	     -3.51208004176281460000	      0.78619574894070809000	      1.00028308888487240000	     -0.29808679811186245000	    -17.75606055766629200000	     -1.49789420120770860000	      4.13586214624985260000	    -52.10621423694377100000	    -22.55253950455998800000	     -0.00000000000003869573	     -0.00000000000000543058	     24.74377731988781900000	      5.84305967538788450000	      4.79165750690148240000	     -5.60678360357375460000	      4.11349191301763820000	      0.00000000000002235223	     -0.00000000000002961461	     -9.36013823984758810000	     -5.04771544494232320000	     11.66458865242278600000	    -13.84998792194449300000	    -29.22697344888288700000	    -11.03839834023899300000	    107.57094389608238000000	     73.94346022286652000000	     -0.00000000000000065390	      0.00000000000001644652	    -42.83054300024577500000	    -17.50032670278142900000	    -14.80901176086770800000	    100.85470045875104000000	     89.08977763612581700000	      0.00000000000004761228	      0.00000000000000561916
      0.85100000000000009000	     -0.84570762258164012000	      3.17505606002791650000	     -3.51269356638297350000	      0.78613124654633704000	      1.00000339905735400000	     -0.29802912763561312000	    -17.58254797723793000000	     -1.54472721970927050000	      4.13020579573518450000	    -52.78516335167870500000	    -22.52766227626813500000	     -0.00000000000003882375	     -0.00000000000000541506	     24.69371363871653100000	      5.93408423699994090000	      4.78569364318572440000	     -5.90113870439195940000	      4.07132386648492960000	      0.00000000000002247950	     -0.00000000000002984342	     -9.49057139797656820000	     -5.13991301508216210000	     11.59293819960025100000	    -13.84655784519070200000	    -29.17167183078856100000	    -11.00151309331947800000	    107.51553309727228000000	     73.94590907298686500000	     -0.00000000000000065167	      0.00000000000001653966	    -42.67423878262329900000	    -17.53678294648123900000	    -14.77087284541143900000	    100.86151086009211000000	     89.09941377423032800000	      0.00000000000004788500	      0.00000000000000564841
      0.85200000000000009000	     -0.75960164951487796000	      3.23255634059756900000	     -3.51212225404825370000	      0.78606491118304578000	      0.99971603270301457000	     -0.29797279868114490000	    -17.40781864550632100000	     -1.59545178661198710000	      4.11840679859580040000	    -53.46264157644054600000	    -22.50762423360944100000	     -0.00000000000003895318	     -0.00000000000000540085	     24.64596035930406300000	      6.02897942681130420000	      4.77768902010101380000	     -6.20958972342896320000	      4.02112800785758310000	      0.00000000000002260355	     -0.00000000000003007243	     -9.62145628607997590000	     -5.23524719267271090000	     11.51954777917278800000	    -13.84476799707676500000	    -29.11504490335821400000	    -10.96398024307298700000	    107.45856852130208000000	     73.94713812609612100000	     -0.00000000000000065035	      0.00000000000001663424	    -42.51499820378253200000	    -17.57704321831296900000	    -14.72975407934994200000	    100.86808738178185000000	     89.10796142029271000000	      0.00000000000004815702	      0.00000000000000567516
      0.85300000000000009000	     -0.67314070529769887000	      3.29260666879642280000	     -3.51031669359252520000	      0.78599682757140665000	      0.99942083032299489000	     -0.29791794466058946000	    -17.23184413436478100000	     -1.64991469611356020000	      4.10066701908381770000	    -54.13846936745284200000	    -22.49189838840205600000	     -0.00000000000003908451	     -0.00000000000000538800	     24.60051737466793400000	      6.12757376286444360000	      4.76760121213512010000	     -6.53165739339437580000	      3.96273455307681520000	      0.00000000000002272558	     -0.00000000000003030273	     -9.75267154837488090000	     -5.33349620396561710000	     11.44436096980425800000	    -13.84464209674922600000	    -29.05720122288761300000	    -10.92580029647912800000	    107.40011474921877000000	     73.94715898843891500000	     -0.00000000000000064869	      0.00000000000001673028	    -42.35291726978609000000	    -17.62101415576430000000	    -14.68570497894857900000	    100.87447882775774000000	     89.11538318942174900000	      0.00000000000004842873	      0.00000000000000570043
      0.85400000000000009000	     -0.58653304920640925000	      3.35505461866256920000	     -3.50722310686551710000	      0.78592703726460567000	      0.99911749820101881000	     -0.29786471532557474000	    -17.05447494185466400000	     -1.70795175461286110000	      4.07720118543487780000	    -54.81251467766119800000	    -22.47991248628316900000	     -0.00000000000003921941	     -0.00000000000000537501	     24.55750996603395500000	      6.22969241930238570000	      4.75533095506065350000	     -6.86690670156902170000	      3.89647583814002060000	      0.00000000000002285234	     -0.00000000000003053684	     -9.88399136758839350000	     -5.43443104361347820000	     11.36732238459925300000	    -13.84621236619408800000	    -28.99824117925390300000	    -10.88697595372538100000	    107.34022362027552000000	     73.94599641567960200000	     -0.00000000000000064763	      0.00000000000001682684	    -42.18809727449529800000	    -17.66859617656156400000	    -14.63877804765790500000	    100.88071891226240000000	     89.12164337403452000000	      0.00000000000004870082	      0.00000000000000572557
      0.85499999999999998000	     -0.50005887861418818000	      3.41973907306967330000	     -3.50278471154731990000	      0.78585555781942606000	      0.99880563465440031000	     -0.29781326618154635000	    -16.87547429605668400000	     -1.76937796077969890000	      4.04824096710080990000	    -55.48468095287952200000	    -22.47105897706048700000	     -0.00000000000003935624	     -0.00000000000000536146	     24.51715199420913300000	      6.33514648393837640000	      4.74080502204814810000	     -7.21492458409444290000	      3.82255961629844120000	      0.00000000000002298324	     -0.00000000000003077134	    -10.01511313839037200000	     -5.53780826681305080000	     11.28837932886962000000	    -13.84951743108051200000	    -28.93826137199030400000	    -10.84751219911718300000	    107.27893842806797000000	     73.94368326634122500000	     -0.00000000000000064746	      0.00000000000001692302	    -42.02064535666166700000	    -17.71968345865125700000	    -14.58902873711887300000	    100.88683228776510000000	     89.12670744566109700000	      0.00000000000004897260	      0.00000000000000575000
      0.85599999999999998000	     -0.41404789026858163000	      3.48649469238198730000	     -3.49693913204051880000	      0.78578238635633146000	      0.99848476942797093000	     -0.29776376322694503000	    -16.69454563197036000000	     -1.83399373030187900000	      4.01402734595085600000	    -56.15489873894915000000	    -22.46470320569127600000	     -0.00000000000003949529	     -0.00000000000000534562	     24.47972011641922700000	      6.44374148136330670000	      4.72396103764641760000	     -7.57532073565563470000	      3.74128657757936800000	      0.00000000000002311256	     -0.00000000000003100557	    -10.14568346309165900000	     -5.64337630483215590000	     11.20747767130482900000	    -13.85459761639020600000	    -28.87735484740765200000	    -10.80741616245362400000	    107.21629398137755000000	     73.94025913349987900000	     -0.00000000000000064767	      0.00000000000001701935	    -41.85067018615198000000	    -17.77416558109246500000	    -14.53651471317808800000	    100.89283596430090000000	     89.13054143929876700000	      0.00000000000004924441	      0.00000000000000577381
      0.85699999999999998000	     -0.32885902037294085000	      3.55515327663860740000	     -3.48961766333829270000	      0.78570750490855978000	      0.99815439664574768000	     -0.29771638317956128000	    -16.51135737983299400000	     -1.90158774211214450000	      3.97480668431630240000	    -56.82311783768025000000	    -22.46019117186058300000	     -0.00000000000003963665	     -0.00000000000000532980	     24.44552885677164500000	      6.55528048369019430000	      4.70475324433803890000	     -7.94772128642703900000	      3.65297764688578170000	      0.00000000000002324099	     -0.00000000000003123972	    -10.27532110950870200000	     -5.75087846369222260000	     11.12456005400586200000	    -13.86149145563983800000	    -28.81561197825527300000	    -10.76669710105023200000	    107.15231741129745000000	     73.93576850845347800000	     -0.00000000000000064868	      0.00000000000001711548	    -41.67827890882224300000	    -17.83192856103760300000	    -14.48129517668783000000	    100.89874097763825000000	     89.13311156930615200000	      0.00000000000004951638	      0.00000000000000579631
      0.85799999999999998000	     -0.24486010223101404000	      3.62554597299421610000	     -3.48074447035436440000	      0.78563088500807121000	      0.99781400879309223000	     -0.29767131397743329000	    -16.32556755473064000000	     -1.97194077525274800000	      3.93082625182501080000	    -57.48929945160983100000	    -22.45685689241746300000	     -0.00000000000003978165	     -0.00000000000000531187	     24.41490623209717000000	      6.66956837633989070000	      4.68315262547862150000	     -8.33176423249047280000	      3.55798141910176380000	      0.00000000000002336968	     -0.00000000000003147644	    -10.40363991000916300000	     -5.86005678182467180000	     11.03956380521598900000	    -13.87023226406150100000	    -28.75312103985793800000	    -10.72536639477857400000	    107.08702894907069000000	     73.93025912319257000000	     -0.00000000000000065024	      0.00000000000001721454	    -41.50357405599135100000	    -17.89285592562729800000	    -14.42343016504401700000	    100.90455385969733000000	     89.13438378398966200000	      0.00000000000004978952	      0.00000000000000581990
